<?xml version="1.0" standalone="no"?>
 <!DOCTYPE svg PUBLIC "-//W3C//DTD SVG 1.1//EN" 
 "http://www.w3.org/Graphics/SVG/1.1/DTD/svg11.dtd"> 
<svg
  xmlns:svg="http://www.w3.org/2000/svg"
  xmlns="http://www.w3.org/2000/svg"
  xmlns:xlink="http://www.w3.org/1999/xlink"
  version="1.1"
  width="297.0022mm" height="210.0072mm" viewBox="0.0000 0.0000 297.0022 210.0072">
<title>SVG Image created as Keyboardv0-B_Cu.svg date 2025/12/08 19:27:00 </title>
  <desc>Image generated by PCBNEW </desc>
<g style="fill:#000000; fill-opacity:1.0000;stroke:#000000; stroke-opacity:1.0000;
stroke-linecap:round; stroke-linejoin:round;"
 transform="translate(0 0) scale(1 1)">
</g>
<g style="fill:#000000; fill-opacity:1.0000; stroke:none;">
<circle cx="170.0500" cy="123.1500" r="1.2500" /> 
</g>
<g style="fill:#000000; fill-opacity:1.0000; stroke:none;">
<circle cx="176.4000" cy="120.6100" r="1.2500" /> 
</g>
<g style="fill:#000000; fill-opacity:1.0000; stroke:none;">
<circle cx="157.3500" cy="120.6100" r="1.2500" /> 
</g>
<g style="fill:#000000; fill-opacity:1.0000; stroke:none;">
<circle cx="151.0000" cy="123.1500" r="1.2500" /> 
</g>
<g style="fill:#000000; fill-opacity:1.0000; stroke:none;">
<circle cx="138.3000" cy="120.6100" r="1.2500" /> 
</g>
<g style="fill:#000000; fill-opacity:1.0000; stroke:none;">
<circle cx="131.9500" cy="123.1500" r="1.2500" /> 
</g>
<g style="fill:#000000; fill-opacity:1.0000; stroke:none;">
<circle cx="170.0500" cy="104.1000" r="1.2500" /> 
</g>
<g style="fill:#000000; fill-opacity:1.0000; stroke:none;">
<circle cx="176.4000" cy="101.5600" r="1.2500" /> 
</g>
<g style="fill:#000000; fill-opacity:1.0000; stroke:none;">
<circle cx="151.0000" cy="104.1000" r="1.2500" /> 
</g>
<g style="fill:#000000; fill-opacity:1.0000; stroke:none;">
<circle cx="157.3500" cy="101.5600" r="1.2500" /> 
</g>
<g style="fill:#000000; fill-opacity:1.0000; stroke:none;">
<circle cx="131.9500" cy="104.1000" r="1.2500" /> 
</g>
<g style="fill:#000000; fill-opacity:1.0000; stroke:none;">
<circle cx="138.3000" cy="101.5600" r="1.2500" /> 
</g>
<g style="fill:#000000; fill-opacity:1.0000; stroke:none;">
<circle cx="170.0500" cy="85.0500" r="1.2500" /> 
</g>
<g style="fill:#000000; fill-opacity:1.0000; stroke:none;">
<circle cx="176.4000" cy="82.5100" r="1.2500" /> 
</g>
<g style="fill:#000000; fill-opacity:1.0000; stroke:none;">
<circle cx="151.0000" cy="85.0500" r="1.2500" /> 
</g>
<g style="fill:#000000; fill-opacity:1.0000; stroke:none;">
<circle cx="157.3500" cy="82.5100" r="1.2500" /> 
</g>
<g style="fill:#000000; fill-opacity:1.0000; stroke:none;">
<circle cx="138.3000" cy="82.5100" r="1.2500" /> 
</g>
<g style="fill:#000000; fill-opacity:1.0000; stroke:none;">
<circle cx="131.9500" cy="85.0500" r="1.2500" /> 
</g>
<g style="fill:#000000; fill-opacity:1.0000; stroke:none;">
<circle cx="170.0500" cy="66.0000" r="1.2500" /> 
</g>
<g style="fill:#000000; fill-opacity:1.0000; stroke:none;">
<circle cx="176.4000" cy="63.4600" r="1.2500" /> 
</g>
<g style="fill:#000000; fill-opacity:1.0000; stroke:none;">
<circle cx="151.0000" cy="66.0000" r="1.2500" /> 
</g>
<g style="fill:#000000; fill-opacity:1.0000; stroke:none;">
<circle cx="157.3500" cy="63.4600" r="1.2500" /> 
</g>
<g style="fill:#000000; fill-opacity:1.0000; stroke:none;">
<circle cx="131.9500" cy="66.0000" r="1.2500" /> 
</g>
<g style="fill:#000000; fill-opacity:1.0000; stroke:none;">
<circle cx="138.3000" cy="63.4600" r="1.2500" /> 
</g>
<g style="fill:#000000; fill-opacity:1.0000; stroke:none;">
<circle cx="165.0000" cy="77.5000" r="0.7000" /> 
</g>
<g style="fill:#000000; fill-opacity:1.0000; stroke:none;">
<circle cx="165.0000" cy="72.4200" r="0.7000" /> 
</g>
<g style="fill:#000000; fill-opacity:1.0000; stroke:none;">
<circle cx="164.5000" cy="96.0000" r="0.7000" /> 
</g>
<g style="fill:#000000; fill-opacity:1.0000; stroke:none;">
<circle cx="164.5000" cy="90.9200" r="0.7000" /> 
<path style="fill:#000000; fill-opacity:1.0000; stroke:none;fill-rule:evenodd;"
d="M 138.5250,71.6500
138.4389,71.6329
138.3659,71.5841
138.3171,71.5111
138.3000,71.4250
138.3000,70.9750
138.3171,70.8889
138.3659,70.8159
138.4389,70.7671
138.5250,70.7500
139.2750,70.7500
139.3611,70.7671
139.4341,70.8159
139.4829,70.8889
139.5000,70.9750
139.5000,71.4250
139.4829,71.5111
139.4341,71.5841
139.3611,71.6329
139.2750,71.6500
Z" /> 
<path style="fill:#000000; fill-opacity:1.0000; stroke:none;fill-rule:evenodd;"
d="M 138.5250,74.9500
138.4389,74.9329
138.3659,74.8841
138.3171,74.8111
138.3000,74.7250
138.3000,74.2750
138.3171,74.1889
138.3659,74.1159
138.4389,74.0671
138.5250,74.0500
139.2750,74.0500
139.3611,74.0671
139.4341,74.1159
139.4829,74.1889
139.5000,74.2750
139.5000,74.7250
139.4829,74.8111
139.4341,74.8841
139.3611,74.9329
139.2750,74.9500
Z" /> 
<path style="fill:#000000; fill-opacity:1.0000; stroke:none;fill-rule:evenodd;"
d="M 149.8500,47.8500
148.1500,47.8500
148.1500,46.1500
149.8500,46.1500
Z" /> 
</g>
<g style="fill:#000000; fill-opacity:1.0000; stroke:none;">
<circle cx="151.5400" cy="47.0000" r="0.8500" /> 
</g>
<g style="fill:#000000; fill-opacity:1.0000; stroke:none;">
<circle cx="154.0800" cy="47.0000" r="0.8500" /> 
</g>
<g style="fill:#000000; fill-opacity:1.0000; stroke:none;">
<circle cx="156.6200" cy="47.0000" r="0.8500" /> 
</g>
<g style="fill:#000000; fill-opacity:1.0000; stroke:none;">
<circle cx="159.1600" cy="47.0000" r="0.8500" /> 
</g>
<g style="fill:#000000; fill-opacity:1.0000; stroke:none;">
<circle cx="161.7000" cy="47.0000" r="0.8500" /> 
</g>
<g style="fill:#000000; fill-opacity:1.0000; stroke:none;">
<circle cx="164.2400" cy="47.0000" r="0.8500" /> 
<path style="fill:#000000; fill-opacity:1.0000; stroke:none;fill-rule:evenodd;"
d="M 138.5250,90.7000
138.4389,90.6829
138.3659,90.6341
138.3171,90.5611
138.3000,90.4750
138.3000,90.0250
138.3171,89.9389
138.3659,89.8659
138.4389,89.8171
138.5250,89.8000
139.2750,89.8000
139.3611,89.8171
139.4341,89.8659
139.4829,89.9389
139.5000,90.0250
139.5000,90.4750
139.4829,90.5611
139.4341,90.6341
139.3611,90.6829
139.2750,90.7000
Z" /> 
<path style="fill:#000000; fill-opacity:1.0000; stroke:none;fill-rule:evenodd;"
d="M 138.5250,94.0000
138.4389,93.9829
138.3659,93.9341
138.3171,93.8611
138.3000,93.7750
138.3000,93.3250
138.3171,93.2389
138.3659,93.1659
138.4389,93.1171
138.5250,93.1000
139.2750,93.1000
139.3611,93.1171
139.4341,93.1659
139.4829,93.2389
139.5000,93.3250
139.5000,93.7750
139.4829,93.8611
139.4341,93.9341
139.3611,93.9829
139.2750,94.0000
Z" /> 
<path style="fill:#000000; fill-opacity:1.0000; stroke:none;fill-rule:evenodd;"
d="M 138.5250,109.7500
138.4389,109.7329
138.3659,109.6841
138.3171,109.6111
138.3000,109.5250
138.3000,109.0750
138.3171,108.9889
138.3659,108.9159
138.4389,108.8671
138.5250,108.8500
139.2750,108.8500
139.3611,108.8671
139.4341,108.9159
139.4829,108.9889
139.5000,109.0750
139.5000,109.5250
139.4829,109.6111
139.4341,109.6841
139.3611,109.7329
139.2750,109.7500
Z" /> 
<path style="fill:#000000; fill-opacity:1.0000; stroke:none;fill-rule:evenodd;"
d="M 138.5250,113.0500
138.4389,113.0329
138.3659,112.9841
138.3171,112.9111
138.3000,112.8250
138.3000,112.3750
138.3171,112.2889
138.3659,112.2159
138.4389,112.1671
138.5250,112.1500
139.2750,112.1500
139.3611,112.1671
139.4341,112.2159
139.4829,112.2889
139.5000,112.3750
139.5000,112.8250
139.4829,112.9111
139.4341,112.9841
139.3611,113.0329
139.2750,113.0500
Z" /> 
<path style="fill:#000000; fill-opacity:1.0000; stroke:none;fill-rule:evenodd;"
d="M 138.5250,128.8000
138.4389,128.7829
138.3659,128.7341
138.3171,128.6611
138.3000,128.5750
138.3000,128.1250
138.3171,128.0389
138.3659,127.9659
138.4389,127.9171
138.5250,127.9000
139.2750,127.9000
139.3611,127.9171
139.4341,127.9659
139.4829,128.0389
139.5000,128.1250
139.5000,128.5750
139.4829,128.6611
139.4341,128.7341
139.3611,128.7829
139.2750,128.8000
Z" /> 
<path style="fill:#000000; fill-opacity:1.0000; stroke:none;fill-rule:evenodd;"
d="M 138.5250,132.1000
138.4389,132.0829
138.3659,132.0341
138.3171,131.9611
138.3000,131.8750
138.3000,131.4250
138.3171,131.3389
138.3659,131.2659
138.4389,131.2171
138.5250,131.2000
139.2750,131.2000
139.3611,131.2171
139.4341,131.2659
139.4829,131.3389
139.5000,131.4250
139.5000,131.8750
139.4829,131.9611
139.4341,132.0341
139.3611,132.0829
139.2750,132.1000
Z" /> 
<path style="fill:#000000; fill-opacity:1.0000; stroke:none;fill-rule:evenodd;"
d="M 157.5750,128.8000
157.4889,128.7829
157.4159,128.7341
157.3671,128.6611
157.3500,128.5750
157.3500,128.1250
157.3671,128.0389
157.4159,127.9659
157.4889,127.9171
157.5750,127.9000
158.3250,127.9000
158.4111,127.9171
158.4841,127.9659
158.5329,128.0389
158.5500,128.1250
158.5500,128.5750
158.5329,128.6611
158.4841,128.7341
158.4111,128.7829
158.3250,128.8000
Z" /> 
<path style="fill:#000000; fill-opacity:1.0000; stroke:none;fill-rule:evenodd;"
d="M 157.5750,132.1000
157.4889,132.0829
157.4159,132.0341
157.3671,131.9611
157.3500,131.8750
157.3500,131.4250
157.3671,131.3389
157.4159,131.2659
157.4889,131.2171
157.5750,131.2000
158.3250,131.2000
158.4111,131.2171
158.4841,131.2659
158.5329,131.3389
158.5500,131.4250
158.5500,131.8750
158.5329,131.9611
158.4841,132.0341
158.4111,132.0829
158.3250,132.1000
Z" /> 
<path style="fill:#000000; fill-opacity:1.0000; stroke:none;fill-rule:evenodd;"
d="M 157.5750,90.7000
157.4889,90.6829
157.4159,90.6341
157.3671,90.5611
157.3500,90.4750
157.3500,90.0250
157.3671,89.9389
157.4159,89.8659
157.4889,89.8171
157.5750,89.8000
158.3250,89.8000
158.4111,89.8171
158.4841,89.8659
158.5329,89.9389
158.5500,90.0250
158.5500,90.4750
158.5329,90.5611
158.4841,90.6341
158.4111,90.6829
158.3250,90.7000
Z" /> 
<path style="fill:#000000; fill-opacity:1.0000; stroke:none;fill-rule:evenodd;"
d="M 157.5750,94.0000
157.4889,93.9829
157.4159,93.9341
157.3671,93.8611
157.3500,93.7750
157.3500,93.3250
157.3671,93.2389
157.4159,93.1659
157.4889,93.1171
157.5750,93.1000
158.3250,93.1000
158.4111,93.1171
158.4841,93.1659
158.5329,93.2389
158.5500,93.3250
158.5500,93.7750
158.5329,93.8611
158.4841,93.9341
158.4111,93.9829
158.3250,94.0000
Z" /> 
<path style="fill:#000000; fill-opacity:1.0000; stroke:none;fill-rule:evenodd;"
d="M 157.5750,71.6500
157.4889,71.6329
157.4159,71.5841
157.3671,71.5111
157.3500,71.4250
157.3500,70.9750
157.3671,70.8889
157.4159,70.8159
157.4889,70.7671
157.5750,70.7500
158.3250,70.7500
158.4111,70.7671
158.4841,70.8159
158.5329,70.8889
158.5500,70.9750
158.5500,71.4250
158.5329,71.5111
158.4841,71.5841
158.4111,71.6329
158.3250,71.6500
Z" /> 
<path style="fill:#000000; fill-opacity:1.0000; stroke:none;fill-rule:evenodd;"
d="M 157.5750,74.9500
157.4889,74.9329
157.4159,74.8841
157.3671,74.8111
157.3500,74.7250
157.3500,74.2750
157.3671,74.1889
157.4159,74.1159
157.4889,74.0671
157.5750,74.0500
158.3250,74.0500
158.4111,74.0671
158.4841,74.1159
158.5329,74.1889
158.5500,74.2750
158.5500,74.7250
158.5329,74.8111
158.4841,74.8841
158.4111,74.9329
158.3250,74.9500
Z" /> 
<path style="fill:#000000; fill-opacity:1.0000; stroke:none;fill-rule:evenodd;"
d="M 157.5750,109.7500
157.4889,109.7329
157.4159,109.6841
157.3671,109.6111
157.3500,109.5250
157.3500,109.0750
157.3671,108.9889
157.4159,108.9159
157.4889,108.8671
157.5750,108.8500
158.3250,108.8500
158.4111,108.8671
158.4841,108.9159
158.5329,108.9889
158.5500,109.0750
158.5500,109.5250
158.5329,109.6111
158.4841,109.6841
158.4111,109.7329
158.3250,109.7500
Z" /> 
<path style="fill:#000000; fill-opacity:1.0000; stroke:none;fill-rule:evenodd;"
d="M 157.5750,113.0500
157.4889,113.0329
157.4159,112.9841
157.3671,112.9111
157.3500,112.8250
157.3500,112.3750
157.3671,112.2889
157.4159,112.2159
157.4889,112.1671
157.5750,112.1500
158.3250,112.1500
158.4111,112.1671
158.4841,112.2159
158.5329,112.2889
158.5500,112.3750
158.5500,112.8250
158.5329,112.9111
158.4841,112.9841
158.4111,113.0329
158.3250,113.0500
Z" /> 
<path style="fill:#000000; fill-opacity:1.0000; stroke:none;fill-rule:evenodd;"
d="M 176.6250,128.8000
176.5389,128.7829
176.4659,128.7341
176.4171,128.6611
176.4000,128.5750
176.4000,128.1250
176.4171,128.0389
176.4659,127.9659
176.5389,127.9171
176.6250,127.9000
177.3750,127.9000
177.4611,127.9171
177.5341,127.9659
177.5829,128.0389
177.6000,128.1250
177.6000,128.5750
177.5829,128.6611
177.5341,128.7341
177.4611,128.7829
177.3750,128.8000
Z" /> 
<path style="fill:#000000; fill-opacity:1.0000; stroke:none;fill-rule:evenodd;"
d="M 176.6250,132.1000
176.5389,132.0829
176.4659,132.0341
176.4171,131.9611
176.4000,131.8750
176.4000,131.4250
176.4171,131.3389
176.4659,131.2659
176.5389,131.2171
176.6250,131.2000
177.3750,131.2000
177.4611,131.2171
177.5341,131.2659
177.5829,131.3389
177.6000,131.4250
177.6000,131.8750
177.5829,131.9611
177.5341,132.0341
177.4611,132.0829
177.3750,132.1000
Z" /> 
<path style="fill:#000000; fill-opacity:1.0000; stroke:none;fill-rule:evenodd;"
d="M 176.6250,109.7500
176.5389,109.7329
176.4659,109.6841
176.4171,109.6111
176.4000,109.5250
176.4000,109.0750
176.4171,108.9889
176.4659,108.9159
176.5389,108.8671
176.6250,108.8500
177.3750,108.8500
177.4611,108.8671
177.5341,108.9159
177.5829,108.9889
177.6000,109.0750
177.6000,109.5250
177.5829,109.6111
177.5341,109.6841
177.4611,109.7329
177.3750,109.7500
Z" /> 
<path style="fill:#000000; fill-opacity:1.0000; stroke:none;fill-rule:evenodd;"
d="M 176.6250,113.0500
176.5389,113.0329
176.4659,112.9841
176.4171,112.9111
176.4000,112.8250
176.4000,112.3750
176.4171,112.2889
176.4659,112.2159
176.5389,112.1671
176.6250,112.1500
177.3750,112.1500
177.4611,112.1671
177.5341,112.2159
177.5829,112.2889
177.6000,112.3750
177.6000,112.8250
177.5829,112.9111
177.5341,112.9841
177.4611,113.0329
177.3750,113.0500
Z" /> 
<path style="fill:#000000; fill-opacity:1.0000; stroke:none;fill-rule:evenodd;"
d="M 176.6250,90.7000
176.5389,90.6829
176.4659,90.6341
176.4171,90.5611
176.4000,90.4750
176.4000,90.0250
176.4171,89.9389
176.4659,89.8659
176.5389,89.8171
176.6250,89.8000
177.3750,89.8000
177.4611,89.8171
177.5341,89.8659
177.5829,89.9389
177.6000,90.0250
177.6000,90.4750
177.5829,90.5611
177.5341,90.6341
177.4611,90.6829
177.3750,90.7000
Z" /> 
<path style="fill:#000000; fill-opacity:1.0000; stroke:none;fill-rule:evenodd;"
d="M 176.6250,94.0000
176.5389,93.9829
176.4659,93.9341
176.4171,93.8611
176.4000,93.7750
176.4000,93.3250
176.4171,93.2389
176.4659,93.1659
176.5389,93.1171
176.6250,93.1000
177.3750,93.1000
177.4611,93.1171
177.5341,93.1659
177.5829,93.2389
177.6000,93.3250
177.6000,93.7750
177.5829,93.8611
177.5341,93.9341
177.4611,93.9829
177.3750,94.0000
Z" /> 
<path style="fill:#000000; fill-opacity:1.0000; stroke:none;fill-rule:evenodd;"
d="M 176.6250,71.6500
176.5389,71.6329
176.4659,71.5841
176.4171,71.5111
176.4000,71.4250
176.4000,70.9750
176.4171,70.8889
176.4659,70.8159
176.5389,70.7671
176.6250,70.7500
177.3750,70.7500
177.4611,70.7671
177.5341,70.8159
177.5829,70.8889
177.6000,70.9750
177.6000,71.4250
177.5829,71.5111
177.5341,71.5841
177.4611,71.6329
177.3750,71.6500
Z" /> 
<path style="fill:#000000; fill-opacity:1.0000; stroke:none;fill-rule:evenodd;"
d="M 176.6250,74.9500
176.5389,74.9329
176.4659,74.8841
176.4171,74.8111
176.4000,74.7250
176.4000,74.2750
176.4171,74.1889
176.4659,74.1159
176.5389,74.0671
176.6250,74.0500
177.3750,74.0500
177.4611,74.0671
177.5341,74.1159
177.5829,74.1889
177.6000,74.2750
177.6000,74.7250
177.5829,74.8111
177.5341,74.8841
177.4611,74.9329
177.3750,74.9500
Z" /> 
</g>
<g style="fill:#000000; fill-opacity:1.0000; stroke:none;">
<circle cx="164.5000" cy="115.5800" r="0.7000" /> 
</g>
<g style="fill:#000000; fill-opacity:1.0000; stroke:none;">
<circle cx="164.5000" cy="110.5000" r="0.7000" /> 
</g>
<g style="fill:none; 
stroke:#000000; stroke-width:1.0000; stroke-opacity:1; 
stroke-linecap:round; stroke-linejoin:round;">
<path d="M187.5000 61.5000
L171.0490 45.0490
" />
<path d="M171.0490 45.0490
L162.4489 45.0490
" />
<path d="M187.5000 83.0500
L187.5000 61.5000
" />
<path d="M161.7000 45.7979
L161.7000 47.0000
" />
<path d="M162.4489 45.0490
L161.7000 45.7979
" />
<path d="M177.0000 93.5500
L187.5000 83.0500
" />
<path d="M177.0000 74.5000
L183.5070 74.5000
" />
<path d="M183.5070 74.5000
L185.3010 72.7060
" />
<path d="M185.3010 62.8010
L169.5000 47.0000
" />
<path d="M185.3010 72.7060
L185.3010 62.8010
" />
<path d="M169.5000 47.0000
L164.2400 47.0000
" />
<path d="M147.0490 45.0490
L155.8711 45.0490
" />
<path d="M155.8711 45.0490
L156.6200 45.7979
" />
<path d="M156.6200 45.7979
L156.6200 47.0000
" />
<path d="M154.0800 47.0000
L154.0800 50.0300
" />
<path d="M154.0800 50.0300
L170.0500 66.0000
" />
<path d="M164.5000 115.5800
L164.5000 117.6000
" />
<path d="M164.5000 117.6000
L170.0500 123.1500
" />
<path d="M170.0500 104.1000
L168.2822 104.1000
" />
<path d="M168.2822 104.1000
L164.5000 107.8822
" />
<path d="M164.5000 107.8822
L164.5000 110.5000
" />
<path d="M164.5000 96.0000
L164.5000 98.5500
" />
<path d="M164.5000 98.5500
L170.0500 104.1000
" />
<path d="M170.0500 85.0500
L168.2822 85.0500
" />
<path d="M168.2822 85.0500
L164.5000 88.8322
" />
<path d="M164.5000 88.8322
L164.5000 90.9200
" />
<path d="M165.0000 77.5000
L165.0000 80.0000
" />
<path d="M165.0000 80.0000
L170.0500 85.0500
" />
<path d="M170.0500 66.0000
L168.2822 66.0000
" />
<path d="M168.2822 66.0000
L165.0000 69.2822
" />
<path d="M165.0000 69.2822
L165.0000 72.4200
" />
<path d="M138.9000 131.6500
L134.3405 131.6500
" />
<path d="M129.0540 126.3635
L129.0540 63.0440
" />
<path d="M134.3405 131.6500
L129.0540 126.3635
" />
<path d="M129.0540 63.0440
L147.0490 45.0490
" />
<path d="M164.2400 46.7809
L164.2400 47.0000
" />
<path d="M151.5400 47.0000
L151.5400 65.4600
" />
<path d="M151.5400 65.4600
L151.0000 66.0000
" />
<path d="M149.0000 47.0000
L149.0000 48.9500
" />
<path d="M149.0000 48.9500
L131.9500 66.0000
" />
<path d="M138.9000 131.6500
L177.0000 131.6500
" />
<path d="M138.9000 112.6000
L177.0000 112.6000
" />
<path d="M138.3000 120.6100
L138.9000 121.2100
" />
<path d="M138.9000 121.2100
L138.9000 128.3500
" />
<path d="M157.3500 120.6100
L157.9500 121.2100
" />
<path d="M157.9500 121.2100
L157.9500 128.3500
" />
<path d="M176.4000 120.6100
L177.0000 121.2100
" />
<path d="M177.0000 121.2100
L177.0000 128.3500
" />
<path d="M176.4000 101.5600
L177.0000 102.1600
" />
<path d="M177.0000 102.1600
L177.0000 109.3000
" />
<path d="M157.3500 101.5600
L157.9500 102.1600
" />
<path d="M157.9500 102.1600
L157.9500 109.3000
" />
<path d="M138.3000 101.5600
L138.9000 102.1600
" />
<path d="M138.9000 102.1600
L138.9000 109.3000
" />
<path d="M176.4000 82.5100
L177.0000 83.1100
" />
<path d="M177.0000 83.1100
L177.0000 90.2500
" />
<path d="M157.3500 82.5100
L157.9500 83.1100
" />
<path d="M157.9500 83.1100
L157.9500 90.2500
" />
<path d="M138.9000 93.5500
L177.0000 93.5500
" />
<path d="M138.3000 82.5100
L138.9000 83.1100
" />
<path d="M138.9000 83.1100
L138.9000 90.2500
" />
<path d="M176.4000 63.4600
L177.0000 64.0600
" />
<path d="M177.0000 64.0600
L177.0000 71.2000
" />
<path d="M157.3500 63.4600
L157.9500 64.0600
" />
<path d="M157.9500 64.0600
L157.9500 71.2000
" />
<path d="M138.9000 74.5000
L177.0000 74.5000
" />
<path d="M138.3000 63.4600
L138.9000 64.0600
" />
<path d="M132.3060 66.3560
L132.3060 122.7940
" />
<path d="M138.9000 64.0600
L138.9000 71.2000
" />
<path d="M146.9685 85.0500
L151.0000 85.0500
" />
<path d="M138.0195 72.8990
L137.1990 73.7195
" />
<path d="M142.3332 72.8990
L138.0195 72.8990
" />
<path d="M149.2322 66.0000
L142.3332 72.8990
" />
<path d="M137.1990 75.2805
L146.9685 85.0500
" />
<path d="M137.1990 73.7195
L137.1990 75.2805
" />
<path d="M151.0000 66.0000
L149.2322 66.0000
" />
<path d="M137.1990 94.3305
L146.9685 104.1000
" />
<path d="M146.9685 104.1000
L151.0000 104.1000
" />
<path d="M137.1990 92.7695
L137.1990 94.3305
" />
<path d="M138.0195 91.9490
L137.1990 92.7695
" />
<path d="M150.0510 91.9490
L138.0195 91.9490
" />
<path d="M151.3560 90.6440
L150.0510 91.9490
" />
<path d="M151.3560 85.4060
L151.3560 90.6440
" />
<path d="M151.0000 85.0500
L151.3560 85.4060
" />
<path d="M146.9685 123.1500
L151.0000 123.1500
" />
<path d="M151.0000 104.1000
L149.9705 104.1000
" />
<path d="M137.1990 113.3805
L146.9685 123.1500
" />
<path d="M149.9705 104.1000
L143.0715 110.9990
" />
<path d="M137.1990 111.8195
L137.1990 113.3805
" />
<path d="M138.0195 110.9990
L137.1990 111.8195
" />
<path d="M143.0715 110.9990
L138.0195 110.9990
" />
<path d="M159.1600 46.0738
L159.1600 47.0000
" />
<path d="M155.5862 42.5000
L159.1600 46.0738
" />
<path d="M138.0000 42.5000
L155.5862 42.5000
" />
<path d="M125.0000 55.5000
L138.0000 42.5000
" />
<path d="M125.0000 129.5000
L125.0000 55.5000
" />
<path d="M132.0000 136.5000
L125.0000 129.5000
" />
<path d="M179.0000 136.5000
L132.0000 136.5000
" />
<path d="M185.5000 130.0000
L179.0000 136.5000
" />
<path d="M185.5000 117.8490
L185.5000 130.0000
" />
<path d="M180.2510 112.6000
L185.5000 117.8490
" />
<path d="M177.0000 112.6000
L180.2510 112.6000
" />
<path style="fill:none; 
stroke:#000000; stroke-width:0.0500; stroke-opacity:1; 
stroke-linecap:round; stroke-linejoin:round;fill:none"
d="M 119.8100,40.0000
189.8100,40.0000
189.8100,140.0000
119.8100,140.0000
Z" /> 
</g> 
</svg>
